Coordinates
version=1
nRows=18
nColumns=34
inDegrees=no

Units are S.I. units (second, meters, Newtons, ...)
If the header above contains a line with 'inDegrees', this indicates whether rotational values are in degrees (yes) or radians (no).

endheader
time	pelvis_tilt	pelvis_list	pelvis_rotation	pelvis_tx	pelvis_ty	pelvis_tz	hip_flexion_r	hip_adduction_r	hip_rotation_r	knee_angle_r	ankle_angle_r	subtalar_angle_r	mtp_angle_r	hip_flexion_l	hip_adduction_l	hip_rotation_l	knee_angle_l	ankle_angle_l	subtalar_angle_l	mtp_angle_l	lumbar_extension	lumbar_bending	lumbar_rotation	arm_flex_r	arm_add_r	arm_rot_r	elbow_flex_r	pro_sup_r	arm_flex_l	arm_add_l	arm_rot_l	elbow_flex_l	pro_sup_l
0.45	-0.00107525	-0.136548	0.0709027	0.511599	0.965399	-0.174067	-0.157282	0.138987	-0.228053	0.0779966	0.274195	0.306973	-0.00349293	0.49088	-0.177717	-0.128493	0.225321	0.10349	0.113727	-0.0218175	-0.171937	0.0763953	0.212369	0.183056	-0.331881	-0.0296281	0.798956	1.67449	-0.0674929	-0.212173	0.150327	0.559274	1.90806
0.46	-0.00321664	-0.133272	0.0705282	0.52321	0.963632	-0.1746	-0.166664	0.133706	-0.234256	0.0831865	0.285466	0.319573	-0.00358024	0.482803	-0.174496	-0.127014	0.174367	0.113674	0.148064	-0.021786	-0.167081	0.0671093	0.215974	0.18318	-0.335038	-0.0316206	0.803224	1.68163	-0.0726495	-0.220323	0.1554	0.55553	1.90601
0.47	-0.0063378	-0.13086	0.0695316	0.534911	0.96177	-0.175157	-0.174063	0.128941	-0.239277	0.0901213	0.296034	0.330408	-0.00366755	0.478328	-0.173112	-0.123107	0.136074	0.122784	0.173843	-0.0217545	-0.16099	0.0584603	0.21931	0.182616	-0.33812	-0.0332138	0.807045	1.68864	-0.0773827	-0.229483	0.164864	0.552169	1.90637
0.48	-0.0104511	-0.129319	0.0680415	0.546699	0.95984	-0.175737	-0.179504	0.124777	-0.242738	0.098648	0.305583	0.338788	-0.00375486	0.477969	-0.173694	-0.117642	0.111746	0.130696	0.190674	-0.021723	-0.153655	0.0504657	0.222204	0.181334	-0.341072	-0.0343225	0.810517	1.69519	-0.0817346	-0.239716	0.17884	0.549398	1.90928
0.49	-0.0154396	-0.128479	0.0662157	0.558573	0.957872	-0.176347	-0.183165	0.121122	-0.244346	0.10862	0.313795	0.344102	-0.00384217	0.4817	-0.176051	-0.111575	0.101584	0.137179	0.198737	-0.0216914	-0.145224	0.0429661	0.22447	0.17934	-0.343795	-0.0349454	0.813673	1.70107	-0.0857311	-0.251023	0.19715	0.54742	1.91463
0.5	-0.0210562	-0.128001	0.0642141	0.570541	0.955903	-0.177003	-0.185355	0.117691	-0.243916	0.119932	0.320354	0.345859	-0.00392947	0.488901	-0.179677	-0.105797	0.104577	0.14184	0.198659	-0.0216598	-0.136006	0.0356265	0.22594	0.176675	-0.346157	-0.0351597	0.81648	1.70618	-0.0893763	-0.263344	0.219319	0.546395	1.92207
0.51	-0.026956	-0.127429	0.0621786	0.582615	0.953968	-0.177725	-0.186458	0.114064	-0.241375	0.132554	0.32492	0.343704	-0.00401677	0.498436	-0.183824	-0.101015	0.118595	0.144142	0.191398	-0.0216281	-0.126435	0.0279866	0.226485	0.173408	-0.348009	-0.0351009	0.818855	1.71047	-0.0926527	-0.276543	0.244594	0.546417	1.93106
0.52	-0.032747	-0.126264	0.0602147	0.59482	0.952132	-0.178542	-0.186855	0.109763	-0.236741	0.14656	0.327111	0.337398	-0.00410407	0.50884	-0.187627	-0.0976987	0.140699	0.143516	0.178169	-0.0215964	-0.117011	0.0195398	0.226027	0.169626	-0.3492	-0.034933	0.820692	1.71392	-0.0955249	-0.290424	0.272017	0.54749	1.94096
0.53	-0.0380499	-0.124043	0.058385	0.607166	0.950439	-0.179474	-0.186838	0.104342	-0.230102	0.16215	0.326482	0.326794	-0.00419136	0.518566	-0.190252	-0.0960801	0.167586	0.139515	0.160393	-0.0215646	-0.108234	0.00981972	0.224548	0.165424	-0.349602	-0.0348169	0.821887	1.71655	-0.0979478	-0.304732	0.300498	0.549526	1.95108
0.54	-0.0425476	-0.120417	0.0567047	0.619654	0.948926	-0.180538	-0.186546	0.0974665	-0.221586	0.179664	0.322525	0.311812	-0.00427865	0.526234	-0.191021	-0.0961944	0.196092	0.131987	0.139632	-0.0215328	-0.100535	-0.00152459	0.22208	0.160891	-0.349127	-0.0348807	0.822371	1.71836	-0.0998768	-0.319173	0.328913	0.552353	1.96082
0.55	-0.0460202	-0.115195	0.0551456	0.632276	0.947613	-0.18174	-0.185916	0.0889534	-0.211353	0.199582	0.314698	0.29243	-0.00436593	0.530835	-0.189501	-0.0979123	0.22362	0.121183	0.117459	-0.021501	-0.0942328	-0.0146806	0.218695	0.156106	-0.347743	-0.0351978	0.822124	1.71939	-0.101277	-0.333436	0.356191	0.555744	1.96965
0.56	-0.0483625	-0.108355	0.0536482	0.645013	0.946508	-0.183073	-0.184679	0.0787857	-0.199596	0.222513	0.30248	0.268692	-0.00445321	0.53185	-0.185545	-0.100964	0.248435	0.107784	0.0952892	-0.0214691	-0.089511	-0.0296568	0.214481	0.151133	-0.345482	-0.035778	0.82119	1.71968	-0.102129	-0.347216	0.381391	0.559443	1.97717
0.57	-0.0495845	-0.100025	0.0521414	0.657833	0.9456	-0.184524	-0.182378	0.0670858	-0.186562	0.249166	0.285454	0.24073	-0.00454047	0.529289	-0.179265	-0.104967	0.269781	0.0928365	0.0742063	-0.0214372	-0.0864118	-0.0463025	0.209522	0.14602	-0.342439	-0.0365715	0.819681	1.71938	-0.102426	-0.360238	0.403771	0.563201	1.98317
0.58	-0.0498002	-0.0904356	0.0505646	0.670698	0.94486	-0.186074	-0.178412	0.0540693	-0.172567	0.280301	0.263406	0.208791	-0.00462773	0.52363	-0.170979	-0.109482	0.287817	0.0776324	0.0548702	-0.0214053	-0.0848518	-0.0643526	0.203875	0.1408	-0.338759	-0.0374843	0.817767	1.71867	-0.102169	-0.372288	0.422826	0.566798	1.98756
0.59	-0.0492062	-0.0798662	0.0488874	0.683562	0.944247	-0.187699	-0.172106	0.0399888	-0.158014	0.316656	0.236437	0.173267	-0.00471499	0.515716	-0.161129	-0.114078	0.303423	0.0635486	0.0375242	-0.0213733	-0.0846489	-0.0834866	0.197562	0.1355	-0.334619	-0.0384009	0.815667	1.71779	-0.101354	-0.383227	0.438304	0.570059	1.99041
0.6	-0.0480554	-0.0685952	0.0471217	0.696379	0.943708	-0.189378	-0.162795	0.0250868	-0.143382	0.358856	0.205046	0.134719	-0.00480223	0.506598	-0.150205	-0.118414	0.317916	0.051894	0.0221043	-0.0213413	-0.0855564	-0.103384	0.190559	0.130135	-0.330203	-0.0392084	0.813624	1.71698	-0.0999603	-0.393009	0.450201	0.57286	1.99193
0.61	-0.0466243	-0.0568641	0.0453235	0.709098	0.943185	-0.191092	-0.149904	0.00956608	-0.129186	0.407313	0.170192	0.0938797	-0.00488947	0.497367	-0.138684	-0.122299	0.332751	0.0437781	0.00840762	-0.0213092	-0.0873018	-0.123761	0.182812	0.124716	-0.325685	-0.0398154	0.811887	1.71646	-0.097939	-0.401672	0.458723	0.575112	1.99245
0.62	-0.0451792	-0.0448654	0.0435819	0.721675	0.942622	-0.192824	-0.133038	-0.0064138	-0.115925	0.46213	0.133285	0.0516539	-0.00497672	0.489008	-0.126993	-0.125715	0.349244	0.0400179	-0.00374052	-0.0212771	-0.0896248	-0.14439	0.174253	0.11925	-0.321213	-0.0401623	0.810687	1.71635	-0.0952062	-0.409323	0.464238	0.576745	1.99235
